<?xml version="1.0" standalone="no"?>
<!DOCTYPE svg PUBLIC "-//W3C//DTD SVG 20010904//EN"
 "http://www.w3.org/TR/2001/REC-SVG-20010904/DTD/svg10.dtd">
<svg version="1.0" xmlns="http://www.w3.org/2000/svg"
 width="1280.000000pt" height="640.000000pt" viewBox="0 0 1280.000000 640.000000"
 preserveAspectRatio="xMidYMid meet">
<g transform="translate(0.000000,640.000000) scale(0.100000,-0.100000)"
fill="#000000" stroke="none">
<path d="M6593 5643 c2 -738 -10 -1108 -37 -1128 -8 -6 -241 -22 -542 -38
-291 -15 -945 -50 -1454 -77 -1854 -99 -2155 -113 -2180 -107 -14 4 -100 80
-192 170 l-168 162 -21 180 c-12 99 -22 181 -23 182 -2 2 -268 33 -281 33 -2
0 -5 -12 -7 -27 -2 -18 -9 -28 -19 -28 -9 0 -234 205 -500 455 -266 251 -505
475 -531 499 l-47 42 -223 -26 c-123 -14 -231 -29 -240 -33 -15 -6 47 -133
427 -877 404 -788 444 -871 428 -882 -9 -7 -35 -13 -57 -13 -98 -1 -267 -55
-287 -91 -12 -23 -15 -131 -4 -179 18 -82 54 -127 143 -177 34 -19 62 -38 62
-43 0 -7 -86 -72 -648 -487 -106 -79 -188 -143 -181 -143 6 0 119 14 249 30
l238 30 163 76 c90 42 284 132 431 201 l268 124 111 -36 c195 -63 1230 -334
1334 -349 88 -13 387 -37 715 -56 1390 -82 1735 -107 1875 -135 39 -8 105 -17
148 -21 63 -5 77 -10 77 -23 0 -15 -179 -288 -300 -459 -35 -48 -320 -305
-1225 -1103 -649 -573 -1201 -1062 -1227 -1087 l-47 -45 20 -29 c32 -44 88
-68 161 -68 75 1 142 26 255 96 262 162 1095 719 1958 1308 247 170 457 312
467 317 11 6 101 -9 275 -47 316 -68 439 -89 630 -109 161 -17 631 -36 676
-28 97 19 178 272 157 491 -5 54 -16 117 -25 142 -18 52 -74 132 -107 154 -43
28 -158 39 -281 26 -94 -10 -437 -68 -514 -87 -16 -3 -23 -1 -23 8 0 8 148
129 328 269 l327 255 140 7 c194 9 420 59 776 173 l136 44 259 15 c363 21 701
35 1704 66 906 28 1265 42 1367 50 231 20 788 188 1058 319 157 77 245 170
231 245 -38 199 -51 228 -138 297 -28 22 -115 72 -192 109 -106 52 -165 89
-236 147 -197 161 -306 228 -440 273 -200 66 -831 128 -1188 117 -103 -3 -612
-29 -1132 -56 -520 -28 -1156 -62 -1414 -76 -326 -18 -473 -22 -480 -15 -6 6
-133 387 -282 848 l-271 837 -199 42 c-109 23 -206 42 -216 42 -15 1 -16 -53
-15 -696z"/>
</g>
</svg>
